<svg width="159" height="43" viewBox="0 0 159 43" fill="none" xmlns="http://www.w3.org/2000/svg">
<path d="M64.5391 20.9072C64.5391 20.6279 64.4961 20.3773 64.4102 20.1553C64.3314 19.9261 64.181 19.7184 63.959 19.5322C63.737 19.3389 63.4255 19.1491 63.0244 18.9629C62.6234 18.7767 62.1042 18.5833 61.4668 18.3828C60.7578 18.1536 60.0846 17.8958 59.4473 17.6094C58.8171 17.3229 58.2585 16.9899 57.7715 16.6104C57.2917 16.2236 56.9121 15.776 56.6328 15.2676C56.3607 14.7591 56.2246 14.1683 56.2246 13.4951C56.2246 12.8434 56.3678 12.2526 56.6543 11.7227C56.9408 11.1855 57.3418 10.7272 57.8574 10.3477C58.373 9.96094 58.9818 9.66374 59.6836 9.45605C60.3926 9.24837 61.1696 9.14453 62.0146 9.14453C63.1676 9.14453 64.1738 9.35221 65.0332 9.76758C65.8926 10.1829 66.5586 10.7523 67.0312 11.4756C67.5111 12.1989 67.751 13.026 67.751 13.957H64.5498C64.5498 13.4987 64.4531 13.0977 64.2598 12.7539C64.0736 12.403 63.7871 12.1273 63.4004 11.9268C63.0208 11.7262 62.541 11.626 61.9609 11.626C61.4023 11.626 60.9368 11.7119 60.5645 11.8838C60.1921 12.0485 59.9128 12.2741 59.7266 12.5605C59.5404 12.8398 59.4473 13.1549 59.4473 13.5059C59.4473 13.7708 59.5117 14.0107 59.6406 14.2256C59.7767 14.4404 59.9772 14.641 60.2422 14.8271C60.5072 15.0133 60.833 15.1888 61.2197 15.3535C61.6064 15.5182 62.054 15.6794 62.5625 15.8369C63.4147 16.0947 64.1631 16.3848 64.8076 16.707C65.4593 17.0293 66.0036 17.391 66.4404 17.792C66.8773 18.193 67.2067 18.6478 67.4287 19.1562C67.6507 19.6647 67.7617 20.2412 67.7617 20.8857C67.7617 21.5661 67.6292 22.1748 67.3643 22.7119C67.0993 23.249 66.7161 23.7038 66.2148 24.0762C65.7135 24.4486 65.1156 24.7314 64.4209 24.9248C63.7262 25.1182 62.9492 25.2148 62.0898 25.2148C61.3164 25.2148 60.5537 25.1146 59.8018 24.9141C59.0498 24.7064 58.3659 24.3949 57.75 23.9795C57.1413 23.5641 56.6543 23.0342 56.2891 22.3896C55.9238 21.7451 55.7412 20.9824 55.7412 20.1016H58.9746C58.9746 20.5885 59.0498 21.0003 59.2002 21.3369C59.3506 21.6735 59.5618 21.9456 59.834 22.1533C60.1133 22.361 60.4427 22.5114 60.8223 22.6045C61.209 22.6976 61.6315 22.7441 62.0898 22.7441C62.6484 22.7441 63.1068 22.6654 63.4648 22.5078C63.8301 22.3503 64.0986 22.1318 64.2705 21.8525C64.4495 21.5732 64.5391 21.2581 64.5391 20.9072ZM60.3818 5.15918L61.9717 6.7168L63.5615 5.15918H66.2041V5.2666L62.96 8.27441H60.9941L57.7393 5.25586V5.15918H60.3818ZM76.0332 22.3789V17.2012C76.0332 16.8288 75.9723 16.5101 75.8506 16.2451C75.7288 15.973 75.5391 15.7617 75.2812 15.6113C75.0306 15.4609 74.7048 15.3857 74.3037 15.3857C73.96 15.3857 73.6628 15.4466 73.4121 15.5684C73.1615 15.6829 72.9681 15.8512 72.832 16.0732C72.696 16.2881 72.6279 16.5423 72.6279 16.8359H69.5342C69.5342 16.3418 69.6488 15.8727 69.8779 15.4287C70.1071 14.9847 70.4401 14.5944 70.877 14.2578C71.3138 13.9141 71.833 13.6455 72.4346 13.4521C73.0433 13.2588 73.7236 13.1621 74.4756 13.1621C75.3779 13.1621 76.18 13.3125 76.8818 13.6133C77.5837 13.9141 78.1351 14.3652 78.5361 14.9668C78.9443 15.5684 79.1484 16.3203 79.1484 17.2227V22.1963C79.1484 22.8337 79.1878 23.3564 79.2666 23.7646C79.3454 24.1657 79.46 24.5166 79.6104 24.8174V25H76.4844C76.334 24.6849 76.2194 24.291 76.1406 23.8184C76.069 23.3385 76.0332 22.8587 76.0332 22.3789ZM76.4414 17.9209L76.4629 19.6719H74.7334C74.3252 19.6719 73.9707 19.7184 73.6699 19.8115C73.3691 19.9046 73.1221 20.0371 72.9287 20.209C72.7354 20.3737 72.5921 20.5671 72.499 20.7891C72.4131 21.0111 72.3701 21.2546 72.3701 21.5195C72.3701 21.7845 72.431 22.0244 72.5527 22.2393C72.6745 22.4469 72.8499 22.6117 73.0791 22.7334C73.3083 22.848 73.5768 22.9053 73.8848 22.9053C74.3503 22.9053 74.7549 22.8122 75.0986 22.626C75.4424 22.4398 75.7074 22.2106 75.8936 21.9385C76.0869 21.6663 76.1872 21.4085 76.1943 21.165L77.0107 22.4756C76.8962 22.7692 76.7386 23.0736 76.5381 23.3887C76.3447 23.7038 76.0977 24.001 75.7969 24.2803C75.4961 24.5524 75.1344 24.778 74.7119 24.957C74.2894 25.1289 73.7881 25.2148 73.208 25.2148C72.4704 25.2148 71.8008 25.068 71.1992 24.7744C70.6048 24.4736 70.1322 24.0618 69.7812 23.5391C69.4375 23.0091 69.2656 22.4076 69.2656 21.7344C69.2656 21.1257 69.3802 20.585 69.6094 20.1123C69.8385 19.6396 70.1751 19.2422 70.6191 18.9199C71.0703 18.5905 71.6325 18.3434 72.3057 18.1787C72.9788 18.0068 73.7594 17.9209 74.6475 17.9209H76.4414ZM84.627 15.6113V29.4688H81.5332V13.377H84.4014L84.627 15.6113ZM91.9854 19.0596V19.2852C91.9854 20.1302 91.8851 20.9144 91.6846 21.6377C91.4912 22.361 91.2048 22.9912 90.8252 23.5283C90.4456 24.0583 89.973 24.4736 89.4072 24.7744C88.8486 25.068 88.2041 25.2148 87.4736 25.2148C86.7646 25.2148 86.1488 25.0716 85.626 24.7852C85.1032 24.4987 84.6628 24.0977 84.3047 23.582C83.9538 23.0592 83.6709 22.4541 83.4561 21.7666C83.2412 21.0791 83.0765 20.3415 82.9619 19.5537V18.9629C83.0765 18.1178 83.2412 17.3444 83.4561 16.6426C83.6709 15.9336 83.9538 15.3213 84.3047 14.8057C84.6628 14.2829 85.0996 13.8783 85.6152 13.5918C86.138 13.3053 86.7503 13.1621 87.4521 13.1621C88.1898 13.1621 88.8379 13.3018 89.3965 13.5811C89.9622 13.8604 90.4349 14.2614 90.8145 14.7842C91.2012 15.307 91.4912 15.93 91.6846 16.6533C91.8851 17.3766 91.9854 18.1787 91.9854 19.0596ZM88.8809 19.2852V19.0596C88.8809 18.5654 88.8379 18.1107 88.752 17.6953C88.6732 17.2728 88.5443 16.904 88.3652 16.5889C88.1934 16.2738 87.9642 16.0303 87.6777 15.8584C87.3984 15.6794 87.0583 15.5898 86.6572 15.5898C86.2347 15.5898 85.873 15.6579 85.5723 15.7939C85.2786 15.93 85.0387 16.127 84.8525 16.3848C84.6663 16.6426 84.5267 16.9505 84.4336 17.3086C84.3405 17.6667 84.2832 18.0713 84.2617 18.5225V20.0156C84.2975 20.5456 84.3978 21.0218 84.5625 21.4443C84.7272 21.8597 84.9814 22.1891 85.3252 22.4326C85.6689 22.6761 86.1201 22.7979 86.6787 22.7979C87.0869 22.7979 87.4307 22.7083 87.71 22.5293C87.9893 22.3431 88.2148 22.0889 88.3867 21.7666C88.5658 21.4443 88.6911 21.0719 88.7627 20.6494C88.8415 20.2269 88.8809 19.7721 88.8809 19.2852ZM97.1738 13.377V25H94.0693V13.377H97.1738ZM93.876 10.3477C93.876 9.89648 94.0335 9.52409 94.3486 9.23047C94.6637 8.93685 95.0863 8.79004 95.6162 8.79004C96.139 8.79004 96.5579 8.93685 96.873 9.23047C97.1953 9.52409 97.3564 9.89648 97.3564 10.3477C97.3564 10.7988 97.1953 11.1712 96.873 11.4648C96.5579 11.7585 96.139 11.9053 95.6162 11.9053C95.0863 11.9053 94.6637 11.7585 94.3486 11.4648C94.0335 11.1712 93.876 10.7988 93.876 10.3477ZM104.532 22.7979C104.912 22.7979 105.248 22.7262 105.542 22.583C105.836 22.4326 106.065 22.2249 106.229 21.96C106.401 21.6878 106.491 21.3691 106.498 21.0039H109.409C109.402 21.8203 109.184 22.5472 108.754 23.1846C108.324 23.8148 107.748 24.3125 107.024 24.6777C106.301 25.0358 105.492 25.2148 104.597 25.2148C103.694 25.2148 102.907 25.0645 102.233 24.7637C101.567 24.4629 101.012 24.0475 100.568 23.5176C100.124 22.9805 99.7913 22.3574 99.5693 21.6484C99.3473 20.9323 99.2363 20.166 99.2363 19.3496V19.0381C99.2363 18.2145 99.3473 17.4482 99.5693 16.7393C99.7913 16.0231 100.124 15.4001 100.568 14.8701C101.012 14.333 101.567 13.9141 102.233 13.6133C102.899 13.3125 103.68 13.1621 104.575 13.1621C105.528 13.1621 106.362 13.3447 107.078 13.71C107.801 14.0752 108.367 14.598 108.775 15.2783C109.191 15.9515 109.402 16.75 109.409 17.6738H106.498C106.491 17.2871 106.409 16.9362 106.251 16.6211C106.101 16.306 105.879 16.0553 105.585 15.8691C105.299 15.6758 104.944 15.5791 104.521 15.5791C104.07 15.5791 103.701 15.6758 103.415 15.8691C103.129 16.0553 102.907 16.3132 102.749 16.6426C102.591 16.9648 102.48 17.3337 102.416 17.749C102.359 18.1572 102.33 18.5869 102.33 19.0381V19.3496C102.33 19.8008 102.359 20.234 102.416 20.6494C102.473 21.0648 102.581 21.4336 102.738 21.7559C102.903 22.0781 103.129 22.3324 103.415 22.5186C103.701 22.7048 104.074 22.7979 104.532 22.7979ZM116.553 25.2148C115.65 25.2148 114.841 25.0716 114.125 24.7852C113.409 24.4915 112.8 24.0869 112.299 23.5713C111.805 23.0557 111.425 22.4577 111.16 21.7773C110.895 21.0898 110.763 20.3594 110.763 19.5859V19.1562C110.763 18.2754 110.888 17.4697 111.139 16.7393C111.389 16.0088 111.747 15.375 112.213 14.8379C112.686 14.3008 113.258 13.889 113.932 13.6025C114.605 13.3089 115.364 13.1621 116.209 13.1621C117.033 13.1621 117.763 13.2982 118.4 13.5703C119.038 13.8424 119.571 14.2292 120.001 14.7305C120.438 15.2318 120.767 15.8333 120.989 16.5352C121.211 17.2298 121.322 18.0033 121.322 18.8555V20.1445H112.084V18.082H118.282V17.8457C118.282 17.416 118.203 17.0329 118.046 16.6963C117.896 16.3525 117.666 16.0804 117.358 15.8799C117.05 15.6794 116.657 15.5791 116.177 15.5791C115.769 15.5791 115.418 15.6686 115.124 15.8477C114.83 16.0267 114.59 16.2773 114.404 16.5996C114.225 16.9219 114.089 17.3014 113.996 17.7383C113.91 18.168 113.867 18.6406 113.867 19.1562V19.5859C113.867 20.0514 113.932 20.4811 114.061 20.875C114.197 21.2689 114.386 21.609 114.63 21.8955C114.881 22.182 115.181 22.404 115.532 22.5615C115.89 22.7191 116.295 22.7979 116.746 22.7979C117.305 22.7979 117.824 22.6904 118.304 22.4756C118.791 22.2536 119.21 21.9206 119.561 21.4766L121.064 23.1094C120.821 23.4603 120.488 23.7969 120.065 24.1191C119.65 24.4414 119.149 24.7064 118.562 24.9141C117.974 25.1146 117.305 25.2148 116.553 25.2148Z" fill="#353232"/>
<path d="M57.749 38H56.2646L56.2744 37.2334H57.749C58.2568 37.2334 58.68 37.1276 59.0186 36.916C59.3571 36.7012 59.611 36.4017 59.7803 36.0176C59.9528 35.6302 60.0391 35.1777 60.0391 34.6602V34.2256C60.0391 33.8187 59.9902 33.4574 59.8926 33.1416C59.7949 32.8226 59.6517 32.554 59.4629 32.3359C59.2741 32.1146 59.043 31.9469 58.7695 31.833C58.4993 31.7191 58.1885 31.6621 57.8369 31.6621H56.2354V30.8906H57.8369C58.3024 30.8906 58.7272 30.9688 59.1113 31.125C59.4954 31.278 59.8258 31.501 60.1025 31.7939C60.3825 32.0837 60.5973 32.4352 60.7471 32.8486C60.8968 33.2588 60.9717 33.721 60.9717 34.2354V34.6602C60.9717 35.1745 60.8968 35.6383 60.7471 36.0518C60.5973 36.4619 60.3809 36.8118 60.0977 37.1016C59.8177 37.3913 59.4792 37.6143 59.082 37.7705C58.6882 37.9235 58.2438 38 57.749 38ZM56.7676 30.8906V38H55.8252V30.8906H56.7676ZM62.0117 35.417V35.3047C62.0117 34.9238 62.0671 34.5706 62.1777 34.2451C62.2884 33.9163 62.4479 33.6315 62.6562 33.3906C62.8646 33.1465 63.1169 32.9577 63.4131 32.8242C63.7093 32.6875 64.0413 32.6191 64.4092 32.6191C64.7803 32.6191 65.1139 32.6875 65.4102 32.8242C65.7096 32.9577 65.9635 33.1465 66.1719 33.3906C66.3835 33.6315 66.5446 33.9163 66.6553 34.2451C66.766 34.5706 66.8213 34.9238 66.8213 35.3047V35.417C66.8213 35.7979 66.766 36.151 66.6553 36.4766C66.5446 36.8021 66.3835 37.0869 66.1719 37.3311C65.9635 37.5719 65.7113 37.7607 65.415 37.8975C65.1221 38.0309 64.79 38.0977 64.4189 38.0977C64.0479 38.0977 63.7142 38.0309 63.418 37.8975C63.1217 37.7607 62.8678 37.5719 62.6562 37.3311C62.4479 37.0869 62.2884 36.8021 62.1777 36.4766C62.0671 36.151 62.0117 35.7979 62.0117 35.417ZM62.915 35.3047V35.417C62.915 35.6807 62.946 35.9297 63.0078 36.1641C63.0697 36.3952 63.1624 36.6003 63.2861 36.7793C63.4131 36.9583 63.571 37.0999 63.7598 37.2041C63.9486 37.305 64.1683 37.3555 64.4189 37.3555C64.6663 37.3555 64.8828 37.305 65.0684 37.2041C65.2572 37.0999 65.4134 36.9583 65.5371 36.7793C65.6608 36.6003 65.7536 36.3952 65.8154 36.1641C65.8805 35.9297 65.9131 35.6807 65.9131 35.417V35.3047C65.9131 35.0443 65.8805 34.7985 65.8154 34.5674C65.7536 34.333 65.6592 34.1263 65.5322 33.9473C65.4085 33.765 65.2523 33.6217 65.0635 33.5176C64.8779 33.4134 64.6598 33.3613 64.4092 33.3613C64.1618 33.3613 63.9437 33.4134 63.7549 33.5176C63.5693 33.6217 63.4131 33.765 63.2861 33.9473C63.1624 34.1263 63.0697 34.333 63.0078 34.5674C62.946 34.7985 62.915 35.0443 62.915 35.3047ZM68.8525 33.7666V38H67.9443V32.7168H68.8037L68.8525 33.7666ZM68.667 35.1582L68.2471 35.1436C68.2503 34.7822 68.2975 34.4486 68.3887 34.1426C68.4798 33.8333 68.6149 33.5648 68.7939 33.3369C68.973 33.109 69.196 32.9333 69.4629 32.8096C69.7298 32.6826 70.0391 32.6191 70.3906 32.6191C70.638 32.6191 70.8659 32.6549 71.0742 32.7266C71.2826 32.7949 71.4632 32.904 71.6162 33.0537C71.7692 33.2035 71.888 33.3955 71.9727 33.6299C72.0573 33.8643 72.0996 34.1475 72.0996 34.4795V38H71.1963V34.5234C71.1963 34.2467 71.1491 34.0254 71.0547 33.8594C70.9635 33.6934 70.8333 33.5729 70.6641 33.498C70.4948 33.4199 70.2962 33.3809 70.0684 33.3809C69.8014 33.3809 69.5785 33.4281 69.3994 33.5225C69.2204 33.6169 69.0771 33.7471 68.9697 33.9131C68.8623 34.0791 68.7842 34.2695 68.7354 34.4844C68.6898 34.696 68.667 34.9206 68.667 35.1582ZM72.0898 34.6602L71.4844 34.8457C71.4876 34.556 71.5348 34.2777 71.626 34.0107C71.7204 33.7438 71.8555 33.5062 72.0312 33.2979C72.2103 33.0895 72.43 32.9251 72.6904 32.8047C72.9508 32.681 73.2487 32.6191 73.584 32.6191C73.8672 32.6191 74.1178 32.6566 74.3359 32.7314C74.5573 32.8063 74.7428 32.9219 74.8926 33.0781C75.0456 33.2311 75.1611 33.4281 75.2393 33.6689C75.3174 33.9098 75.3564 34.1963 75.3564 34.5283V38H74.4482V34.5186C74.4482 34.2223 74.401 33.9928 74.3066 33.8301C74.2155 33.6641 74.0853 33.5485 73.916 33.4834C73.75 33.415 73.5514 33.3809 73.3203 33.3809C73.1217 33.3809 72.946 33.415 72.793 33.4834C72.64 33.5518 72.5114 33.6462 72.4072 33.7666C72.3031 33.8838 72.2233 34.0189 72.168 34.1719C72.1159 34.3249 72.0898 34.4876 72.0898 34.6602ZM83.1396 37.2578V38H79.2969V37.2578H83.1396ZM82.998 33.3564L79.502 38H78.9502V37.3359L82.4219 32.7168H82.998V33.3564ZM82.5977 32.7168V33.4639H78.9893V32.7168H82.5977ZM87.2803 37.0967V34.377C87.2803 34.1686 87.238 33.988 87.1533 33.835C87.0719 33.6787 86.9482 33.5583 86.7822 33.4736C86.6162 33.389 86.4111 33.3467 86.167 33.3467C85.9391 33.3467 85.7389 33.3857 85.5664 33.4639C85.3971 33.542 85.2637 33.6445 85.166 33.7715C85.0716 33.8984 85.0244 34.0352 85.0244 34.1816H84.1211C84.1211 33.9928 84.1699 33.8057 84.2676 33.6201C84.3652 33.4346 84.5052 33.2669 84.6875 33.1172C84.873 32.9642 85.0944 32.8438 85.3516 32.7559C85.612 32.6647 85.9017 32.6191 86.2207 32.6191C86.6048 32.6191 86.9434 32.6842 87.2363 32.8145C87.5326 32.9447 87.7637 33.1416 87.9297 33.4053C88.099 33.6657 88.1836 33.9928 88.1836 34.3867V36.8477C88.1836 37.0234 88.1982 37.2106 88.2275 37.4092C88.2601 37.6077 88.3073 37.7786 88.3691 37.9219V38H87.4268C87.3812 37.8958 87.3454 37.7575 87.3193 37.585C87.2933 37.4092 87.2803 37.2464 87.2803 37.0967ZM87.4365 34.7969L87.4463 35.4316H86.5332C86.276 35.4316 86.0465 35.4528 85.8447 35.4951C85.6429 35.5342 85.4736 35.5944 85.3369 35.6758C85.2002 35.7572 85.096 35.8597 85.0244 35.9834C84.9528 36.1038 84.917 36.2454 84.917 36.4082C84.917 36.5742 84.9544 36.7256 85.0293 36.8623C85.1042 36.999 85.2165 37.1081 85.3662 37.1895C85.5192 37.2676 85.7064 37.3066 85.9277 37.3066C86.2044 37.3066 86.4486 37.248 86.6602 37.1309C86.8717 37.0137 87.0394 36.8704 87.1631 36.7012C87.29 36.5319 87.3584 36.3675 87.3682 36.208L87.7539 36.6426C87.7311 36.7793 87.6693 36.9307 87.5684 37.0967C87.4674 37.2627 87.3324 37.4222 87.1631 37.5752C86.9971 37.7249 86.7985 37.8503 86.5674 37.9512C86.3395 38.0488 86.0824 38.0977 85.7959 38.0977C85.4378 38.0977 85.1237 38.0277 84.8535 37.8877C84.5866 37.7477 84.3783 37.5605 84.2285 37.3262C84.082 37.0885 84.0088 36.8232 84.0088 36.5303C84.0088 36.2471 84.0641 35.998 84.1748 35.7832C84.2855 35.5651 84.445 35.3844 84.6533 35.2412C84.8617 35.0947 85.1123 34.984 85.4053 34.9092C85.6982 34.8343 86.0254 34.7969 86.3867 34.7969H87.4365ZM92.9932 30.5V38H92.085V30.5H92.9932ZM96.2207 32.7168L93.916 35.1826L92.627 36.5205L92.5537 35.5586L93.4766 34.4551L95.1172 32.7168H96.2207ZM95.3955 38L93.5107 35.4805L93.9795 34.6748L96.46 38H95.3955ZM100.386 36.7793V32.7168H101.294V38H100.43L100.386 36.7793ZM100.557 35.666L100.933 35.6562C100.933 36.0078 100.895 36.3333 100.82 36.6328C100.749 36.929 100.632 37.1862 100.469 37.4043C100.306 37.6224 100.093 37.7933 99.8291 37.917C99.5654 38.0374 99.2448 38.0977 98.8672 38.0977C98.61 38.0977 98.374 38.0602 98.1592 37.9854C97.9476 37.9105 97.7653 37.7949 97.6123 37.6387C97.4593 37.4824 97.3405 37.279 97.2559 37.0283C97.1745 36.7777 97.1338 36.4766 97.1338 36.125V32.7168H98.0371V36.1348C98.0371 36.3724 98.0632 36.5693 98.1152 36.7256C98.1706 36.8786 98.2438 37.0007 98.335 37.0918C98.4294 37.1797 98.5335 37.2415 98.6475 37.2773C98.7646 37.3132 98.8851 37.3311 99.0088 37.3311C99.3929 37.3311 99.6973 37.2578 99.9219 37.1113C100.146 36.9616 100.308 36.7614 100.405 36.5107C100.506 36.2568 100.557 35.9753 100.557 35.666ZM104.785 37.3555C105 37.3555 105.199 37.3115 105.381 37.2236C105.563 37.1357 105.713 37.0153 105.83 36.8623C105.947 36.7061 106.014 36.5286 106.03 36.3301H106.89C106.873 36.6426 106.768 36.9339 106.572 37.2041C106.38 37.471 106.128 37.6875 105.815 37.8535C105.503 38.0163 105.16 38.0977 104.785 38.0977C104.388 38.0977 104.041 38.0277 103.745 37.8877C103.452 37.7477 103.208 37.5557 103.013 37.3115C102.821 37.0674 102.676 36.7874 102.578 36.4717C102.484 36.1527 102.437 35.8158 102.437 35.4609V35.2559C102.437 34.901 102.484 34.5658 102.578 34.25C102.676 33.931 102.821 33.6494 103.013 33.4053C103.208 33.1611 103.452 32.9691 103.745 32.8291C104.041 32.6891 104.388 32.6191 104.785 32.6191C105.199 32.6191 105.56 32.7038 105.869 32.873C106.178 33.0391 106.421 33.2669 106.597 33.5566C106.776 33.8431 106.873 34.1686 106.89 34.5332H106.03C106.014 34.3151 105.952 34.1182 105.845 33.9424C105.741 33.7666 105.597 33.6266 105.415 33.5225C105.236 33.415 105.026 33.3613 104.785 33.3613C104.508 33.3613 104.276 33.4167 104.087 33.5273C103.901 33.6348 103.753 33.7812 103.643 33.9668C103.535 34.1491 103.457 34.3525 103.408 34.5771C103.363 34.7985 103.34 35.0247 103.34 35.2559V35.4609C103.34 35.6921 103.363 35.9199 103.408 36.1445C103.454 36.3691 103.53 36.5726 103.638 36.7549C103.748 36.9372 103.896 37.0837 104.082 37.1943C104.271 37.3018 104.505 37.3555 104.785 37.3555ZM110.098 38.0977C109.73 38.0977 109.396 38.0358 109.097 37.9121C108.8 37.7852 108.545 37.6077 108.33 37.3799C108.118 37.152 107.956 36.8818 107.842 36.5693C107.728 36.2568 107.671 35.915 107.671 35.5439V35.3389C107.671 34.9092 107.734 34.5267 107.861 34.1914C107.988 33.8529 108.161 33.5664 108.379 33.332C108.597 33.0977 108.844 32.9202 109.121 32.7998C109.398 32.6794 109.684 32.6191 109.98 32.6191C110.358 32.6191 110.684 32.6842 110.957 32.8145C111.234 32.9447 111.46 33.127 111.636 33.3613C111.812 33.5924 111.942 33.8659 112.026 34.1816C112.111 34.4941 112.153 34.8359 112.153 35.207V35.6123H108.208V34.875H111.25V34.8066C111.237 34.5723 111.188 34.3444 111.104 34.123C111.022 33.9017 110.892 33.7194 110.713 33.5762C110.534 33.4329 110.29 33.3613 109.98 33.3613C109.775 33.3613 109.587 33.4053 109.414 33.4932C109.242 33.5778 109.093 33.7048 108.97 33.874C108.846 34.0433 108.75 34.25 108.682 34.4941C108.613 34.7383 108.579 35.0199 108.579 35.3389V35.5439C108.579 35.7946 108.613 36.0306 108.682 36.252C108.753 36.4701 108.856 36.6621 108.989 36.8281C109.126 36.9941 109.29 37.1243 109.482 37.2188C109.678 37.3132 109.899 37.3604 110.146 37.3604C110.465 37.3604 110.736 37.2952 110.957 37.165C111.178 37.0348 111.372 36.8607 111.538 36.6426L112.085 37.0771C111.971 37.2497 111.826 37.4141 111.65 37.5703C111.475 37.7266 111.258 37.8535 111.001 37.9512C110.747 38.0488 110.446 38.0977 110.098 38.0977ZM115.684 30.5H116.592V36.9746L116.514 38H115.684V30.5ZM120.161 35.3145V35.417C120.161 35.8011 120.116 36.1576 120.024 36.4863C119.933 36.8118 119.8 37.0951 119.624 37.3359C119.448 37.5768 119.233 37.764 118.979 37.8975C118.726 38.0309 118.434 38.0977 118.105 38.0977C117.77 38.0977 117.476 38.0407 117.222 37.9268C116.971 37.8096 116.759 37.6419 116.587 37.4238C116.414 37.2057 116.276 36.9421 116.172 36.6328C116.071 36.3236 116.001 35.9753 115.962 35.5879V35.1387C116.001 34.748 116.071 34.3981 116.172 34.0889C116.276 33.7796 116.414 33.516 116.587 33.2979C116.759 33.0765 116.971 32.9089 117.222 32.7949C117.472 32.6777 117.764 32.6191 118.096 32.6191C118.428 32.6191 118.722 32.6842 118.979 32.8145C119.237 32.9414 119.451 33.1237 119.624 33.3613C119.8 33.599 119.933 33.8838 120.024 34.2158C120.116 34.5446 120.161 34.9108 120.161 35.3145ZM119.253 35.417V35.3145C119.253 35.0508 119.229 34.8034 119.18 34.5723C119.131 34.3379 119.053 34.1328 118.945 33.957C118.838 33.778 118.696 33.638 118.521 33.5371C118.345 33.4329 118.128 33.3809 117.871 33.3809C117.643 33.3809 117.445 33.4199 117.275 33.498C117.109 33.5762 116.968 33.682 116.851 33.8154C116.733 33.9456 116.637 34.0954 116.562 34.2646C116.491 34.4307 116.437 34.6032 116.401 34.7822V35.959C116.453 36.1868 116.538 36.4066 116.655 36.6182C116.776 36.8265 116.935 36.9974 117.134 37.1309C117.336 37.2643 117.585 37.3311 117.881 37.3311C118.125 37.3311 118.333 37.2822 118.506 37.1846C118.682 37.0837 118.823 36.9453 118.931 36.7695C119.041 36.5938 119.123 36.3903 119.175 36.1592C119.227 35.9281 119.253 35.6807 119.253 35.417ZM123.496 38.0977C123.128 38.0977 122.795 38.0358 122.495 37.9121C122.199 37.7852 121.943 37.6077 121.729 37.3799C121.517 37.152 121.354 36.8818 121.24 36.5693C121.126 36.2568 121.069 35.915 121.069 35.5439V35.3389C121.069 34.9092 121.133 34.5267 121.26 34.1914C121.387 33.8529 121.559 33.5664 121.777 33.332C121.995 33.0977 122.243 32.9202 122.52 32.7998C122.796 32.6794 123.083 32.6191 123.379 32.6191C123.757 32.6191 124.082 32.6842 124.355 32.8145C124.632 32.9447 124.858 33.127 125.034 33.3613C125.21 33.5924 125.34 33.8659 125.425 34.1816C125.509 34.4941 125.552 34.8359 125.552 35.207V35.6123H121.606V34.875H124.648V34.8066C124.635 34.5723 124.587 34.3444 124.502 34.123C124.421 33.9017 124.29 33.7194 124.111 33.5762C123.932 33.4329 123.688 33.3613 123.379 33.3613C123.174 33.3613 122.985 33.4053 122.812 33.4932C122.64 33.5778 122.492 33.7048 122.368 33.874C122.244 34.0433 122.148 34.25 122.08 34.4941C122.012 34.7383 121.978 35.0199 121.978 35.3389V35.5439C121.978 35.7946 122.012 36.0306 122.08 36.252C122.152 36.4701 122.254 36.6621 122.388 36.8281C122.524 36.9941 122.689 37.1243 122.881 37.2188C123.076 37.3132 123.298 37.3604 123.545 37.3604C123.864 37.3604 124.134 37.2952 124.355 37.165C124.577 37.0348 124.771 36.8607 124.937 36.6426L125.483 37.0771C125.369 37.2497 125.225 37.4141 125.049 37.5703C124.873 37.7266 124.657 37.8535 124.399 37.9512C124.146 38.0488 123.844 38.0977 123.496 38.0977ZM130.542 37.2578V38H126.699V37.2578H130.542ZM130.4 33.3564L126.904 38H126.353V37.3359L129.824 32.7168H130.4V33.3564ZM130 32.7168V33.4639H126.392V32.7168H130ZM137.378 36.9746V30.5H138.286V38H137.456L137.378 36.9746ZM133.823 35.417V35.3145C133.823 34.9108 133.872 34.5446 133.97 34.2158C134.071 33.8838 134.212 33.599 134.395 33.3613C134.58 33.1237 134.8 32.9414 135.054 32.8145C135.311 32.6842 135.597 32.6191 135.913 32.6191C136.245 32.6191 136.535 32.6777 136.782 32.7949C137.033 32.9089 137.244 33.0765 137.417 33.2979C137.593 33.516 137.731 33.7796 137.832 34.0889C137.933 34.3981 138.003 34.748 138.042 35.1387V35.5879C138.006 35.9753 137.936 36.3236 137.832 36.6328C137.731 36.9421 137.593 37.2057 137.417 37.4238C137.244 37.6419 137.033 37.8096 136.782 37.9268C136.532 38.0407 136.239 38.0977 135.903 38.0977C135.594 38.0977 135.311 38.0309 135.054 37.8975C134.8 37.764 134.58 37.5768 134.395 37.3359C134.212 37.0951 134.071 36.8118 133.97 36.4863C133.872 36.1576 133.823 35.8011 133.823 35.417ZM134.731 35.3145V35.417C134.731 35.6807 134.757 35.9281 134.81 36.1592C134.865 36.3903 134.95 36.5938 135.063 36.7695C135.177 36.9453 135.322 37.0837 135.498 37.1846C135.674 37.2822 135.884 37.3311 136.128 37.3311C136.427 37.3311 136.673 37.2676 136.865 37.1406C137.061 37.0137 137.217 36.846 137.334 36.6377C137.451 36.4294 137.542 36.2031 137.607 35.959V34.7822C137.568 34.6032 137.511 34.4307 137.437 34.2646C137.365 34.0954 137.271 33.9456 137.153 33.8154C137.039 33.682 136.898 33.5762 136.729 33.498C136.562 33.4199 136.366 33.3809 136.138 33.3809C135.89 33.3809 135.677 33.4329 135.498 33.5371C135.322 33.638 135.177 33.778 135.063 33.957C134.95 34.1328 134.865 34.3379 134.81 34.5723C134.757 34.8034 134.731 35.0508 134.731 35.3145ZM139.453 35.417V35.3047C139.453 34.9238 139.508 34.5706 139.619 34.2451C139.73 33.9163 139.889 33.6315 140.098 33.3906C140.306 33.1465 140.558 32.9577 140.854 32.8242C141.151 32.6875 141.483 32.6191 141.851 32.6191C142.222 32.6191 142.555 32.6875 142.852 32.8242C143.151 32.9577 143.405 33.1465 143.613 33.3906C143.825 33.6315 143.986 33.9163 144.097 34.2451C144.207 34.5706 144.263 34.9238 144.263 35.3047V35.417C144.263 35.7979 144.207 36.151 144.097 36.4766C143.986 36.8021 143.825 37.0869 143.613 37.3311C143.405 37.5719 143.153 37.7607 142.856 37.8975C142.563 38.0309 142.231 38.0977 141.86 38.0977C141.489 38.0977 141.156 38.0309 140.859 37.8975C140.563 37.7607 140.309 37.5719 140.098 37.3311C139.889 37.0869 139.73 36.8021 139.619 36.4766C139.508 36.151 139.453 35.7979 139.453 35.417ZM140.356 35.3047V35.417C140.356 35.6807 140.387 35.9297 140.449 36.1641C140.511 36.3952 140.604 36.6003 140.728 36.7793C140.854 36.9583 141.012 37.0999 141.201 37.2041C141.39 37.305 141.61 37.3555 141.86 37.3555C142.108 37.3555 142.324 37.305 142.51 37.2041C142.699 37.0999 142.855 36.9583 142.979 36.7793C143.102 36.6003 143.195 36.3952 143.257 36.1641C143.322 35.9297 143.354 35.6807 143.354 35.417V35.3047C143.354 35.0443 143.322 34.7985 143.257 34.5674C143.195 34.333 143.101 34.1263 142.974 33.9473C142.85 33.765 142.694 33.6217 142.505 33.5176C142.319 33.4134 142.101 33.3613 141.851 33.3613C141.603 33.3613 141.385 33.4134 141.196 33.5176C141.011 33.6217 140.854 33.765 140.728 33.9473C140.604 34.1263 140.511 34.333 140.449 34.5674C140.387 34.7985 140.356 35.0443 140.356 35.3047ZM146.294 33.7666V38H145.386V32.7168H146.245L146.294 33.7666ZM146.108 35.1582L145.688 35.1436C145.692 34.7822 145.739 34.4486 145.83 34.1426C145.921 33.8333 146.056 33.5648 146.235 33.3369C146.414 33.109 146.637 32.9333 146.904 32.8096C147.171 32.6826 147.48 32.6191 147.832 32.6191C148.079 32.6191 148.307 32.6549 148.516 32.7266C148.724 32.7949 148.905 32.904 149.058 33.0537C149.211 33.2035 149.329 33.3955 149.414 33.6299C149.499 33.8643 149.541 34.1475 149.541 34.4795V38H148.638V34.5234C148.638 34.2467 148.59 34.0254 148.496 33.8594C148.405 33.6934 148.275 33.5729 148.105 33.498C147.936 33.4199 147.738 33.3809 147.51 33.3809C147.243 33.3809 147.02 33.4281 146.841 33.5225C146.662 33.6169 146.519 33.7471 146.411 33.9131C146.304 34.0791 146.226 34.2695 146.177 34.4844C146.131 34.696 146.108 34.9206 146.108 35.1582ZM149.531 34.6602L148.926 34.8457C148.929 34.556 148.976 34.2777 149.067 34.0107C149.162 33.7438 149.297 33.5062 149.473 33.2979C149.652 33.0895 149.871 32.9251 150.132 32.8047C150.392 32.681 150.69 32.6191 151.025 32.6191C151.309 32.6191 151.559 32.6566 151.777 32.7314C151.999 32.8063 152.184 32.9219 152.334 33.0781C152.487 33.2311 152.603 33.4281 152.681 33.6689C152.759 33.9098 152.798 34.1963 152.798 34.5283V38H151.89V34.5186C151.89 34.2223 151.842 33.9928 151.748 33.8301C151.657 33.6641 151.527 33.5485 151.357 33.4834C151.191 33.415 150.993 33.3809 150.762 33.3809C150.563 33.3809 150.387 33.415 150.234 33.4834C150.081 33.5518 149.953 33.6462 149.849 33.7666C149.744 33.8838 149.665 34.0189 149.609 34.1719C149.557 34.3249 149.531 34.4876 149.531 34.6602ZM157.28 37.0967V34.377C157.28 34.1686 157.238 33.988 157.153 33.835C157.072 33.6787 156.948 33.5583 156.782 33.4736C156.616 33.389 156.411 33.3467 156.167 33.3467C155.939 33.3467 155.739 33.3857 155.566 33.4639C155.397 33.542 155.264 33.6445 155.166 33.7715C155.072 33.8984 155.024 34.0352 155.024 34.1816H154.121C154.121 33.9928 154.17 33.8057 154.268 33.6201C154.365 33.4346 154.505 33.2669 154.688 33.1172C154.873 32.9642 155.094 32.8438 155.352 32.7559C155.612 32.6647 155.902 32.6191 156.221 32.6191C156.605 32.6191 156.943 32.6842 157.236 32.8145C157.533 32.9447 157.764 33.1416 157.93 33.4053C158.099 33.6657 158.184 33.9928 158.184 34.3867V36.8477C158.184 37.0234 158.198 37.2106 158.228 37.4092C158.26 37.6077 158.307 37.7786 158.369 37.9219V38H157.427C157.381 37.8958 157.345 37.7575 157.319 37.585C157.293 37.4092 157.28 37.2464 157.28 37.0967ZM157.437 34.7969L157.446 35.4316H156.533C156.276 35.4316 156.047 35.4528 155.845 35.4951C155.643 35.5342 155.474 35.5944 155.337 35.6758C155.2 35.7572 155.096 35.8597 155.024 35.9834C154.953 36.1038 154.917 36.2454 154.917 36.4082C154.917 36.5742 154.954 36.7256 155.029 36.8623C155.104 36.999 155.216 37.1081 155.366 37.1895C155.519 37.2676 155.706 37.3066 155.928 37.3066C156.204 37.3066 156.449 37.248 156.66 37.1309C156.872 37.0137 157.039 36.8704 157.163 36.7012C157.29 36.5319 157.358 36.3675 157.368 36.208L157.754 36.6426C157.731 36.7793 157.669 36.9307 157.568 37.0967C157.467 37.2627 157.332 37.4222 157.163 37.5752C156.997 37.7249 156.799 37.8503 156.567 37.9512C156.34 38.0488 156.082 38.0977 155.796 38.0977C155.438 38.0977 155.124 38.0277 154.854 37.8877C154.587 37.7477 154.378 37.5605 154.229 37.3262C154.082 37.0885 154.009 36.8232 154.009 36.5303C154.009 36.2471 154.064 35.998 154.175 35.7832C154.285 35.5651 154.445 35.3844 154.653 35.2412C154.862 35.0947 155.112 34.984 155.405 34.9092C155.698 34.8343 156.025 34.7969 156.387 34.7969H157.437Z" fill="#353232"/>
<path fill-rule="evenodd" clip-rule="evenodd" d="M14.0536 0.129472C17.3514 0.129472 20.0282 4.22007 20.0282 9.26246C20.0282 14.3049 17.3514 18.3955 14.0536 18.3955C10.7558 18.3955 8.07901 14.3084 8.07901 9.26246C8.08251 4.22007 10.7558 0.129472 14.0536 0.129472ZM21.649 22.2376C28.6445 22.2516 29.5146 26.8741 35.412 34.7858C38.352 40.5421 34.5349 44.1708 27.992 42.6171C25.024 41.109 22.9366 40.5771 20.8421 40.6471C17.2146 40.773 16.2989 43.1595 12.0784 42.9915C8.82276 42.9041 7.3563 41.5429 7.07213 39.4678C6.76691 37.2633 7.61942 35.8706 8.65787 34.0475C12.6924 26.9511 16.8637 21.3488 21.649 22.2376ZM2.51487 13.675C0.0485509 14.6478 -0.737304 18.4934 0.757224 22.2621C2.25175 26.0308 5.46183 28.2983 7.92815 27.3255C10.3945 26.3527 11.1803 22.507 9.6858 18.7384C8.19127 14.9697 4.98119 12.7022 2.51487 13.675ZM39.4851 13.675C41.9515 14.6478 42.7373 18.4934 41.2428 22.2621C39.7482 26.0308 36.5347 28.2983 34.0719 27.3255C31.6055 26.3527 30.8197 22.507 32.3142 18.7384C33.8087 14.9697 37.0188 12.7022 39.4851 13.675ZM27.8376 0C31.1354 0 33.8122 4.0906 33.8122 9.13299C33.8122 14.1754 31.1354 18.266 27.8376 18.266C24.5399 18.266 21.863 14.1789 21.863 9.13299C21.8665 4.0906 24.5399 0 27.8376 0Z" fill="black"/>
</svg>
