<svg width="227" height="63" viewBox="0 0 227 63" fill="none" xmlns="http://www.w3.org/2000/svg">
<path d="M93.1406 26.791C93.1406 26.4355 93.0859 26.1165 92.9766 25.834C92.8763 25.5423 92.6849 25.278 92.4023 25.041C92.1198 24.7949 91.7233 24.5534 91.2129 24.3164C90.7025 24.0794 90.0417 23.8333 89.2305 23.5781C88.3281 23.2865 87.4714 22.9583 86.6602 22.5938C85.8581 22.2292 85.1471 21.8053 84.5273 21.3223C83.9167 20.8301 83.4336 20.2604 83.0781 19.6133C82.7318 18.9661 82.5586 18.2142 82.5586 17.3574C82.5586 16.528 82.7409 15.776 83.1055 15.1016C83.4701 14.418 83.9805 13.8346 84.6367 13.3516C85.293 12.8594 86.0677 12.4811 86.9609 12.2168C87.8633 11.9525 88.8522 11.8203 89.9277 11.8203C91.3952 11.8203 92.6758 12.0846 93.7695 12.6133C94.8633 13.1419 95.7109 13.8665 96.3125 14.7871C96.9232 15.7077 97.2285 16.7604 97.2285 17.9453H93.1543C93.1543 17.362 93.0312 16.8516 92.7852 16.4141C92.5482 15.9674 92.1836 15.6165 91.6914 15.3613C91.2083 15.1061 90.5977 14.9785 89.8594 14.9785C89.1484 14.9785 88.556 15.0879 88.082 15.3066C87.6081 15.5163 87.2526 15.8034 87.0156 16.168C86.7786 16.5234 86.6602 16.9245 86.6602 17.3711C86.6602 17.7083 86.7422 18.0137 86.9062 18.2871C87.0794 18.5605 87.3346 18.8158 87.6719 19.0527C88.0091 19.2897 88.4238 19.513 88.916 19.7227C89.4082 19.9323 89.9779 20.1374 90.625 20.3379C91.7096 20.666 92.6621 21.0352 93.4824 21.4453C94.3118 21.8555 95.0046 22.3158 95.5605 22.8262C96.1165 23.3366 96.5358 23.9154 96.8184 24.5625C97.1009 25.2096 97.2422 25.9434 97.2422 26.7637C97.2422 27.6296 97.0736 28.4043 96.7363 29.0879C96.3991 29.7715 95.9115 30.3503 95.2734 30.8242C94.6354 31.2982 93.8743 31.6582 92.9902 31.9043C92.1061 32.1504 91.1172 32.2734 90.0234 32.2734C89.0391 32.2734 88.0684 32.1458 87.1113 31.8906C86.1543 31.6263 85.2839 31.2298 84.5 30.7012C83.7253 30.1725 83.1055 29.498 82.6406 28.6777C82.1758 27.8574 81.9434 26.8867 81.9434 25.7656H86.0586C86.0586 26.3854 86.1543 26.9095 86.3457 27.3379C86.5371 27.7663 86.806 28.1126 87.1523 28.377C87.5078 28.6413 87.9271 28.8327 88.4102 28.9512C88.9023 29.0697 89.4401 29.1289 90.0234 29.1289C90.7344 29.1289 91.3177 29.0286 91.7734 28.8281C92.2383 28.6276 92.5801 28.3496 92.7988 27.9941C93.0267 27.6387 93.1406 27.2376 93.1406 26.791ZM87.8496 6.74805L89.873 8.73047L91.8965 6.74805H95.2598V6.88477L91.1309 10.7129H88.6289L84.4863 6.87109V6.74805H87.8496ZM107.77 28.6641V22.0742C107.77 21.6003 107.692 21.1947 107.537 20.8574C107.382 20.5111 107.141 20.2422 106.812 20.0508C106.493 19.8594 106.079 19.7637 105.568 19.7637C105.131 19.7637 104.753 19.8411 104.434 19.9961C104.115 20.1419 103.868 20.3561 103.695 20.6387C103.522 20.9121 103.436 21.2357 103.436 21.6094H99.498C99.498 20.9805 99.6439 20.3835 99.9355 19.8184C100.227 19.2533 100.651 18.7565 101.207 18.3281C101.763 17.8906 102.424 17.5488 103.189 17.3027C103.964 17.0566 104.83 16.9336 105.787 16.9336C106.936 16.9336 107.956 17.125 108.85 17.5078C109.743 17.8906 110.445 18.4648 110.955 19.2305C111.475 19.9961 111.734 20.9531 111.734 22.1016V28.4316C111.734 29.2428 111.785 29.9082 111.885 30.4277C111.985 30.9382 112.131 31.3848 112.322 31.7676V32H108.344C108.152 31.599 108.007 31.0977 107.906 30.4961C107.815 29.8854 107.77 29.2747 107.77 28.6641ZM108.289 22.9902L108.316 25.2188H106.115C105.596 25.2188 105.145 25.278 104.762 25.3965C104.379 25.515 104.064 25.6836 103.818 25.9023C103.572 26.112 103.39 26.3581 103.271 26.6406C103.162 26.9232 103.107 27.2331 103.107 27.5703C103.107 27.9076 103.185 28.2129 103.34 28.4863C103.495 28.7507 103.718 28.9603 104.01 29.1152C104.301 29.2611 104.643 29.334 105.035 29.334C105.628 29.334 106.143 29.2155 106.58 28.9785C107.018 28.7415 107.355 28.4499 107.592 28.1035C107.838 27.7572 107.965 27.429 107.975 27.1191L109.014 28.7871C108.868 29.1608 108.667 29.5482 108.412 29.9492C108.166 30.3503 107.852 30.7285 107.469 31.084C107.086 31.4303 106.626 31.7174 106.088 31.9453C105.55 32.1641 104.912 32.2734 104.174 32.2734C103.235 32.2734 102.383 32.0866 101.617 31.7129C100.861 31.3301 100.259 30.806 99.8125 30.1406C99.375 29.4661 99.1562 28.7005 99.1562 27.8438C99.1562 27.069 99.3021 26.3809 99.5938 25.7793C99.8854 25.1777 100.314 24.6719 100.879 24.2617C101.453 23.8424 102.169 23.528 103.025 23.3184C103.882 23.0996 104.876 22.9902 106.006 22.9902H108.289ZM118.707 20.0508V37.6875H114.77V17.207H118.42L118.707 20.0508ZM128.072 24.4395V24.7266C128.072 25.8021 127.945 26.8001 127.689 27.7207C127.443 28.6413 127.079 29.4434 126.596 30.127C126.113 30.8014 125.511 31.3301 124.791 31.7129C124.08 32.0866 123.26 32.2734 122.33 32.2734C121.428 32.2734 120.644 32.0911 119.979 31.7266C119.313 31.362 118.753 30.8516 118.297 30.1953C117.85 29.5299 117.49 28.7598 117.217 27.8848C116.943 27.0098 116.734 26.071 116.588 25.0684V24.3164C116.734 23.2409 116.943 22.2565 117.217 21.3633C117.49 20.4609 117.85 19.6816 118.297 19.0254C118.753 18.36 119.309 17.8451 119.965 17.4805C120.63 17.1159 121.41 16.9336 122.303 16.9336C123.242 16.9336 124.066 17.1113 124.777 17.4668C125.497 17.8223 126.099 18.3327 126.582 18.998C127.074 19.6634 127.443 20.4564 127.689 21.377C127.945 22.2975 128.072 23.3184 128.072 24.4395ZM124.121 24.7266V24.4395C124.121 23.8105 124.066 23.2318 123.957 22.7031C123.857 22.1654 123.693 21.696 123.465 21.2949C123.246 20.8939 122.954 20.584 122.59 20.3652C122.234 20.1374 121.801 20.0234 121.291 20.0234C120.753 20.0234 120.293 20.11 119.91 20.2832C119.536 20.4564 119.231 20.707 118.994 21.0352C118.757 21.3633 118.579 21.7552 118.461 22.2109C118.342 22.6667 118.27 23.1816 118.242 23.7559V25.6562C118.288 26.3307 118.415 26.9368 118.625 27.4746C118.835 28.0033 119.158 28.4225 119.596 28.7324C120.033 29.0423 120.607 29.1973 121.318 29.1973C121.838 29.1973 122.275 29.0833 122.631 28.8555C122.986 28.6185 123.273 28.2949 123.492 27.8848C123.72 27.4746 123.88 27.0007 123.971 26.4629C124.071 25.9251 124.121 25.3464 124.121 24.7266ZM134.676 17.207V32H130.725V17.207H134.676ZM130.479 13.3516C130.479 12.7773 130.679 12.3034 131.08 11.9297C131.481 11.556 132.019 11.3691 132.693 11.3691C133.359 11.3691 133.892 11.556 134.293 11.9297C134.703 12.3034 134.908 12.7773 134.908 13.3516C134.908 13.9258 134.703 14.3997 134.293 14.7734C133.892 15.1471 133.359 15.334 132.693 15.334C132.019 15.334 131.481 15.1471 131.08 14.7734C130.679 14.3997 130.479 13.9258 130.479 13.3516ZM144.041 29.1973C144.524 29.1973 144.952 29.1061 145.326 28.9238C145.7 28.7324 145.992 28.4681 146.201 28.1309C146.42 27.7845 146.534 27.3789 146.543 26.9141H150.248C150.239 27.9531 149.961 28.8783 149.414 29.6895C148.867 30.4915 148.133 31.125 147.213 31.5898C146.292 32.0456 145.262 32.2734 144.123 32.2734C142.975 32.2734 141.972 32.082 141.115 31.6992C140.268 31.3164 139.561 30.7878 138.996 30.1133C138.431 29.4297 138.007 28.6367 137.725 27.7344C137.442 26.8229 137.301 25.8477 137.301 24.8086V24.4121C137.301 23.3639 137.442 22.3887 137.725 21.4863C138.007 20.5749 138.431 19.7819 138.996 19.1074C139.561 18.4238 140.268 17.8906 141.115 17.5078C141.963 17.125 142.956 16.9336 144.096 16.9336C145.308 16.9336 146.37 17.166 147.281 17.6309C148.202 18.0957 148.922 18.7611 149.441 19.627C149.97 20.4837 150.239 21.5 150.248 22.6758H146.543C146.534 22.1836 146.429 21.737 146.229 21.3359C146.037 20.9349 145.755 20.6159 145.381 20.3789C145.016 20.1328 144.565 20.0098 144.027 20.0098C143.453 20.0098 142.984 20.1328 142.619 20.3789C142.255 20.6159 141.972 20.944 141.771 21.3633C141.571 21.7734 141.43 22.2428 141.348 22.7715C141.275 23.291 141.238 23.8379 141.238 24.4121V24.8086C141.238 25.3828 141.275 25.9342 141.348 26.4629C141.421 26.9915 141.557 27.4609 141.758 27.8711C141.967 28.2812 142.255 28.6048 142.619 28.8418C142.984 29.0788 143.458 29.1973 144.041 29.1973ZM159.34 32.2734C158.191 32.2734 157.161 32.0911 156.25 31.7266C155.339 31.3529 154.564 30.8379 153.926 30.1816C153.297 29.5254 152.814 28.7643 152.477 27.8984C152.139 27.0234 151.971 26.0938 151.971 25.1094V24.5625C151.971 23.4414 152.13 22.416 152.449 21.4863C152.768 20.5566 153.224 19.75 153.816 19.0664C154.418 18.3828 155.147 17.8587 156.004 17.4941C156.861 17.1204 157.827 16.9336 158.902 16.9336C159.951 16.9336 160.88 17.1068 161.691 17.4531C162.503 17.7995 163.182 18.2917 163.729 18.9297C164.285 19.5677 164.704 20.3333 164.986 21.2266C165.269 22.1107 165.41 23.0951 165.41 24.1797V25.8203H153.652V23.1953H161.541V22.8945C161.541 22.3477 161.441 21.86 161.24 21.4316C161.049 20.9941 160.757 20.6478 160.365 20.3926C159.973 20.1374 159.472 20.0098 158.861 20.0098C158.342 20.0098 157.895 20.1237 157.521 20.3516C157.148 20.5794 156.842 20.8984 156.605 21.3086C156.378 21.7188 156.204 22.2018 156.086 22.7578C155.977 23.3047 155.922 23.9062 155.922 24.5625V25.1094C155.922 25.7018 156.004 26.2487 156.168 26.75C156.341 27.2513 156.583 27.6842 156.893 28.0488C157.212 28.4134 157.594 28.696 158.041 28.8965C158.497 29.097 159.012 29.1973 159.586 29.1973C160.297 29.1973 160.958 29.0605 161.568 28.7871C162.188 28.5046 162.721 28.0807 163.168 27.5156L165.082 29.5938C164.772 30.0404 164.348 30.4688 163.811 30.8789C163.282 31.2891 162.644 31.6263 161.896 31.8906C161.149 32.1458 160.297 32.2734 159.34 32.2734Z" fill="#CFCFCF"/>
<path d="M84.8486 55H82.7705L82.7842 53.9268H84.8486C85.5596 53.9268 86.152 53.7786 86.626 53.4824C87.0999 53.1816 87.4554 52.7624 87.6924 52.2246C87.9339 51.6823 88.0547 51.0488 88.0547 50.3242V49.7158C88.0547 49.1462 87.9863 48.6403 87.8496 48.1982C87.7129 47.7516 87.5124 47.3757 87.248 47.0703C86.9837 46.7604 86.6602 46.5257 86.2773 46.3662C85.8991 46.2067 85.4639 46.127 84.9717 46.127H82.7295V45.0469H84.9717C85.6234 45.0469 86.2181 45.1562 86.7559 45.375C87.2936 45.5892 87.7562 45.9014 88.1436 46.3115C88.5355 46.7171 88.8363 47.2093 89.0459 47.7881C89.2555 48.3623 89.3604 49.0094 89.3604 49.7295V50.3242C89.3604 51.0443 89.2555 51.6937 89.0459 52.2725C88.8363 52.8467 88.5332 53.3366 88.1367 53.7422C87.7448 54.1478 87.2708 54.46 86.7148 54.6787C86.1634 54.8929 85.5413 55 84.8486 55ZM83.4746 45.0469V55H82.1553V45.0469H83.4746ZM90.8164 51.3838V51.2266C90.8164 50.6934 90.8939 50.1989 91.0488 49.7432C91.2038 49.2829 91.4271 48.8841 91.7188 48.5469C92.0104 48.2051 92.3636 47.9408 92.7783 47.7539C93.193 47.5625 93.6579 47.4668 94.1729 47.4668C94.6924 47.4668 95.1595 47.5625 95.5742 47.7539C95.9935 47.9408 96.349 48.2051 96.6406 48.5469C96.9368 48.8841 97.1624 49.2829 97.3174 49.7432C97.4723 50.1989 97.5498 50.6934 97.5498 51.2266V51.3838C97.5498 51.917 97.4723 52.4115 97.3174 52.8672C97.1624 53.3229 96.9368 53.7217 96.6406 54.0635C96.349 54.4007 95.9958 54.665 95.5811 54.8564C95.1709 55.0433 94.7061 55.1367 94.1865 55.1367C93.667 55.1367 93.1999 55.0433 92.7852 54.8564C92.3704 54.665 92.015 54.4007 91.7188 54.0635C91.4271 53.7217 91.2038 53.3229 91.0488 52.8672C90.8939 52.4115 90.8164 51.917 90.8164 51.3838ZM92.0811 51.2266V51.3838C92.0811 51.7529 92.1243 52.1016 92.2109 52.4297C92.2975 52.7533 92.4274 53.0404 92.6006 53.291C92.7783 53.5417 92.9993 53.7399 93.2637 53.8857C93.528 54.027 93.8356 54.0977 94.1865 54.0977C94.5329 54.0977 94.8359 54.027 95.0957 53.8857C95.36 53.7399 95.5788 53.5417 95.752 53.291C95.9251 53.0404 96.055 52.7533 96.1416 52.4297C96.2327 52.1016 96.2783 51.7529 96.2783 51.3838V51.2266C96.2783 50.862 96.2327 50.5179 96.1416 50.1943C96.055 49.8662 95.9229 49.5768 95.7451 49.3262C95.5719 49.071 95.3532 48.8704 95.0889 48.7246C94.8291 48.5788 94.5238 48.5059 94.1729 48.5059C93.8265 48.5059 93.5212 48.5788 93.2568 48.7246C92.9971 48.8704 92.7783 49.071 92.6006 49.3262C92.4274 49.5768 92.2975 49.8662 92.2109 50.1943C92.1243 50.5179 92.0811 50.862 92.0811 51.2266ZM100.394 49.0732V55H99.1221V47.6035H100.325L100.394 49.0732ZM100.134 51.0215L99.5459 51.001C99.5505 50.4951 99.6165 50.028 99.7441 49.5996C99.8717 49.1667 100.061 48.7907 100.312 48.4717C100.562 48.1527 100.874 47.9066 101.248 47.7334C101.622 47.5557 102.055 47.4668 102.547 47.4668C102.893 47.4668 103.212 47.5169 103.504 47.6172C103.796 47.7129 104.049 47.8656 104.263 48.0752C104.477 48.2848 104.643 48.5537 104.762 48.8818C104.88 49.21 104.939 49.6064 104.939 50.0713V55H103.675V50.1328C103.675 49.7454 103.609 49.4355 103.477 49.2031C103.349 48.9707 103.167 48.8021 102.93 48.6973C102.693 48.5879 102.415 48.5332 102.096 48.5332C101.722 48.5332 101.41 48.5993 101.159 48.7314C100.909 48.8636 100.708 49.0459 100.558 49.2783C100.407 49.5107 100.298 49.7773 100.229 50.0781C100.166 50.3743 100.134 50.6888 100.134 51.0215ZM104.926 50.3242L104.078 50.584C104.083 50.1784 104.149 49.7887 104.276 49.415C104.409 49.0413 104.598 48.7087 104.844 48.417C105.094 48.1253 105.402 47.8952 105.767 47.7266C106.131 47.5534 106.548 47.4668 107.018 47.4668C107.414 47.4668 107.765 47.5192 108.07 47.624C108.38 47.7288 108.64 47.8906 108.85 48.1094C109.064 48.3236 109.226 48.5993 109.335 48.9365C109.444 49.2738 109.499 49.6748 109.499 50.1396V55H108.228V50.126C108.228 49.7113 108.161 49.39 108.029 49.1621C107.902 48.9297 107.719 48.7679 107.482 48.6768C107.25 48.5811 106.972 48.5332 106.648 48.5332C106.37 48.5332 106.124 48.5811 105.91 48.6768C105.696 48.7725 105.516 48.9046 105.37 49.0732C105.224 49.2373 105.113 49.4264 105.035 49.6406C104.962 49.8548 104.926 50.0827 104.926 50.3242ZM120.396 53.9609V55H115.016V53.9609H120.396ZM120.197 48.499L115.303 55H114.53V54.0703L119.391 47.6035H120.197V48.499ZM119.637 47.6035V48.6494H114.585V47.6035H119.637ZM126.192 53.7354V49.9277C126.192 49.6361 126.133 49.3831 126.015 49.1689C125.901 48.9502 125.728 48.7816 125.495 48.6631C125.263 48.5446 124.976 48.4854 124.634 48.4854C124.315 48.4854 124.035 48.54 123.793 48.6494C123.556 48.7588 123.369 48.9023 123.232 49.0801C123.1 49.2578 123.034 49.4492 123.034 49.6543H121.77C121.77 49.39 121.838 49.1279 121.975 48.8682C122.111 48.6084 122.307 48.3737 122.562 48.1641C122.822 47.9499 123.132 47.7812 123.492 47.6582C123.857 47.5306 124.262 47.4668 124.709 47.4668C125.247 47.4668 125.721 47.5579 126.131 47.7402C126.546 47.9225 126.869 48.1982 127.102 48.5674C127.339 48.932 127.457 49.39 127.457 49.9414V53.3867C127.457 53.6328 127.478 53.8949 127.519 54.1729C127.564 54.4508 127.63 54.6901 127.717 54.8906V55H126.397C126.334 54.8542 126.284 54.6605 126.247 54.4189C126.211 54.1729 126.192 53.945 126.192 53.7354ZM126.411 50.5156L126.425 51.4043H125.146C124.786 51.4043 124.465 51.4339 124.183 51.4932C123.9 51.5479 123.663 51.6322 123.472 51.7461C123.28 51.86 123.134 52.0036 123.034 52.1768C122.934 52.3454 122.884 52.5436 122.884 52.7715C122.884 53.0039 122.936 53.2158 123.041 53.4072C123.146 53.5986 123.303 53.7513 123.513 53.8652C123.727 53.9746 123.989 54.0293 124.299 54.0293C124.686 54.0293 125.028 53.9473 125.324 53.7832C125.62 53.6191 125.855 53.4186 126.028 53.1816C126.206 52.9447 126.302 52.7145 126.315 52.4912L126.855 53.0996C126.824 53.291 126.737 53.5029 126.596 53.7354C126.454 53.9678 126.265 54.1911 126.028 54.4053C125.796 54.6149 125.518 54.7904 125.194 54.9316C124.875 55.0684 124.515 55.1367 124.114 55.1367C123.613 55.1367 123.173 55.0387 122.795 54.8428C122.421 54.6468 122.13 54.3848 121.92 54.0566C121.715 53.724 121.612 53.3525 121.612 52.9424C121.612 52.5459 121.69 52.1973 121.845 51.8965C122 51.5911 122.223 51.3382 122.515 51.1377C122.806 50.9326 123.157 50.7777 123.567 50.6729C123.978 50.568 124.436 50.5156 124.941 50.5156H126.411ZM134.19 44.5V55H132.919V44.5H134.19ZM138.709 47.6035L135.482 51.0557L133.678 52.9287L133.575 51.582L134.867 50.0371L137.164 47.6035H138.709ZM137.554 55L134.915 51.4727L135.571 50.3447L139.044 55H137.554ZM144.54 53.291V47.6035H145.812V55H144.602L144.54 53.291ZM144.779 51.7324L145.306 51.7188C145.306 52.2109 145.253 52.6667 145.148 53.0859C145.048 53.5007 144.884 53.8607 144.656 54.166C144.428 54.4714 144.13 54.7106 143.761 54.8838C143.392 55.0524 142.943 55.1367 142.414 55.1367C142.054 55.1367 141.724 55.0843 141.423 54.9795C141.127 54.8747 140.871 54.7129 140.657 54.4941C140.443 54.2754 140.277 53.9906 140.158 53.6396C140.044 53.2887 139.987 52.8672 139.987 52.375V47.6035H141.252V52.3887C141.252 52.7214 141.288 52.9971 141.361 53.2158C141.439 53.43 141.541 53.6009 141.669 53.7285C141.801 53.8516 141.947 53.9382 142.106 53.9883C142.271 54.0384 142.439 54.0635 142.612 54.0635C143.15 54.0635 143.576 53.9609 143.891 53.7559C144.205 53.5462 144.431 53.266 144.567 52.915C144.709 52.5596 144.779 52.1654 144.779 51.7324ZM150.699 54.0977C151 54.0977 151.278 54.0361 151.533 53.9131C151.788 53.79 151.998 53.6214 152.162 53.4072C152.326 53.1885 152.42 52.9401 152.442 52.6621H153.646C153.623 53.0996 153.475 53.5075 153.201 53.8857C152.932 54.2594 152.579 54.5625 152.142 54.7949C151.704 55.0228 151.223 55.1367 150.699 55.1367C150.143 55.1367 149.658 55.0387 149.243 54.8428C148.833 54.6468 148.491 54.3779 148.218 54.0361C147.949 53.6943 147.746 53.3024 147.609 52.8604C147.477 52.4137 147.411 51.9421 147.411 51.4453V51.1582C147.411 50.6615 147.477 50.1921 147.609 49.75C147.746 49.3034 147.949 48.9092 148.218 48.5674C148.491 48.2256 148.833 47.9567 149.243 47.7607C149.658 47.5648 150.143 47.4668 150.699 47.4668C151.278 47.4668 151.784 47.5853 152.217 47.8223C152.65 48.0547 152.989 48.3737 153.235 48.7793C153.486 49.1803 153.623 49.6361 153.646 50.1465H152.442C152.42 49.8411 152.333 49.5654 152.183 49.3193C152.037 49.0732 151.836 48.8773 151.581 48.7314C151.33 48.5811 151.036 48.5059 150.699 48.5059C150.312 48.5059 149.986 48.5833 149.722 48.7383C149.462 48.8887 149.255 49.0938 149.1 49.3535C148.949 49.6087 148.84 49.8936 148.771 50.208C148.708 50.5179 148.676 50.8346 148.676 51.1582V51.4453C148.676 51.7689 148.708 52.0879 148.771 52.4023C148.835 52.7168 148.942 53.0016 149.093 53.2568C149.248 53.512 149.455 53.7171 149.715 53.8721C149.979 54.0225 150.307 54.0977 150.699 54.0977ZM158.137 55.1367C157.622 55.1367 157.155 55.0501 156.735 54.877C156.321 54.6992 155.963 54.4508 155.662 54.1318C155.366 53.8128 155.138 53.4346 154.979 52.9971C154.819 52.5596 154.739 52.0811 154.739 51.5615V51.2744C154.739 50.6729 154.828 50.1374 155.006 49.668C155.184 49.194 155.425 48.793 155.73 48.4648C156.036 48.1367 156.382 47.8883 156.77 47.7197C157.157 47.5511 157.558 47.4668 157.973 47.4668C158.501 47.4668 158.957 47.5579 159.34 47.7402C159.727 47.9225 160.044 48.1777 160.29 48.5059C160.536 48.8294 160.718 49.2122 160.837 49.6543C160.955 50.0918 161.015 50.5703 161.015 51.0898V51.6572H155.491V50.625H159.75V50.5293C159.732 50.2012 159.663 49.8822 159.545 49.5723C159.431 49.2624 159.249 49.0072 158.998 48.8066C158.747 48.6061 158.406 48.5059 157.973 48.5059C157.686 48.5059 157.421 48.5674 157.18 48.6904C156.938 48.8089 156.731 48.9867 156.558 49.2236C156.384 49.4606 156.25 49.75 156.154 50.0918C156.059 50.4336 156.011 50.8278 156.011 51.2744V51.5615C156.011 51.9124 156.059 52.2428 156.154 52.5527C156.255 52.8581 156.398 53.127 156.585 53.3594C156.776 53.5918 157.007 53.7741 157.275 53.9062C157.549 54.0384 157.859 54.1045 158.205 54.1045C158.652 54.1045 159.03 54.0133 159.34 53.8311C159.65 53.6488 159.921 53.4049 160.153 53.0996L160.919 53.708C160.759 53.9495 160.557 54.1797 160.311 54.3984C160.064 54.6172 159.761 54.7949 159.401 54.9316C159.046 55.0684 158.624 55.1367 158.137 55.1367ZM165.957 44.5H167.229V53.5645L167.119 55H165.957V44.5ZM172.226 51.2402V51.3838C172.226 51.9215 172.162 52.4206 172.034 52.8809C171.907 53.3366 171.72 53.7331 171.474 54.0703C171.228 54.4076 170.927 54.6696 170.571 54.8564C170.216 55.0433 169.808 55.1367 169.348 55.1367C168.878 55.1367 168.466 55.057 168.11 54.8975C167.759 54.7334 167.463 54.4987 167.222 54.1934C166.98 53.888 166.786 53.5189 166.641 53.0859C166.499 52.653 166.401 52.1654 166.347 51.623V50.9941C166.401 50.4473 166.499 49.9574 166.641 49.5244C166.786 49.0915 166.98 48.7223 167.222 48.417C167.463 48.1071 167.759 47.8724 168.11 47.7129C168.461 47.5488 168.869 47.4668 169.334 47.4668C169.799 47.4668 170.211 47.5579 170.571 47.7402C170.931 47.918 171.232 48.1732 171.474 48.5059C171.72 48.8385 171.907 49.2373 172.034 49.7021C172.162 50.1624 172.226 50.6751 172.226 51.2402ZM170.954 51.3838V51.2402C170.954 50.8711 170.92 50.5247 170.852 50.2012C170.783 49.873 170.674 49.5859 170.523 49.3398C170.373 49.0892 170.175 48.8932 169.929 48.752C169.683 48.6061 169.38 48.5332 169.02 48.5332C168.701 48.5332 168.423 48.5879 168.186 48.6973C167.953 48.8066 167.755 48.9548 167.591 49.1416C167.427 49.3239 167.292 49.5335 167.188 49.7705C167.087 50.0029 167.012 50.2445 166.962 50.4951V52.1426C167.035 52.4616 167.153 52.7692 167.317 53.0654C167.486 53.3571 167.709 53.5964 167.987 53.7832C168.27 53.9701 168.618 54.0635 169.033 54.0635C169.375 54.0635 169.667 53.9951 169.908 53.8584C170.154 53.7171 170.353 53.5234 170.503 53.2773C170.658 53.0312 170.772 52.7464 170.845 52.4229C170.918 52.0993 170.954 51.7529 170.954 51.3838ZM176.895 55.1367C176.38 55.1367 175.912 55.0501 175.493 54.877C175.078 54.6992 174.721 54.4508 174.42 54.1318C174.124 53.8128 173.896 53.4346 173.736 52.9971C173.577 52.5596 173.497 52.0811 173.497 51.5615V51.2744C173.497 50.6729 173.586 50.1374 173.764 49.668C173.941 49.194 174.183 48.793 174.488 48.4648C174.794 48.1367 175.14 47.8883 175.527 47.7197C175.915 47.5511 176.316 47.4668 176.73 47.4668C177.259 47.4668 177.715 47.5579 178.098 47.7402C178.485 47.9225 178.802 48.1777 179.048 48.5059C179.294 48.8294 179.476 49.2122 179.595 49.6543C179.713 50.0918 179.772 50.5703 179.772 51.0898V51.6572H174.249V50.625H178.508V50.5293C178.49 50.2012 178.421 49.8822 178.303 49.5723C178.189 49.2624 178.007 49.0072 177.756 48.8066C177.505 48.6061 177.163 48.5059 176.73 48.5059C176.443 48.5059 176.179 48.5674 175.938 48.6904C175.696 48.8089 175.489 48.9867 175.315 49.2236C175.142 49.4606 175.008 49.75 174.912 50.0918C174.816 50.4336 174.769 50.8278 174.769 51.2744V51.5615C174.769 51.9124 174.816 52.2428 174.912 52.5527C175.012 52.8581 175.156 53.127 175.343 53.3594C175.534 53.5918 175.764 53.7741 176.033 53.9062C176.307 54.0384 176.617 54.1045 176.963 54.1045C177.41 54.1045 177.788 54.0133 178.098 53.8311C178.408 53.6488 178.679 53.4049 178.911 53.0996L179.677 53.708C179.517 53.9495 179.314 54.1797 179.068 54.3984C178.822 54.6172 178.519 54.7949 178.159 54.9316C177.804 55.0684 177.382 55.1367 176.895 55.1367ZM186.759 53.9609V55H181.379V53.9609H186.759ZM186.561 48.499L181.666 55H180.894V54.0703L185.754 47.6035H186.561V48.499ZM186 47.6035V48.6494H180.948V47.6035H186ZM196.329 53.5645V44.5H197.601V55H196.438L196.329 53.5645ZM191.353 51.3838V51.2402C191.353 50.6751 191.421 50.1624 191.558 49.7021C191.699 49.2373 191.897 48.8385 192.152 48.5059C192.412 48.1732 192.72 47.918 193.075 47.7402C193.435 47.5579 193.836 47.4668 194.278 47.4668C194.743 47.4668 195.149 47.5488 195.495 47.7129C195.846 47.8724 196.142 48.1071 196.384 48.417C196.63 48.7223 196.824 49.0915 196.965 49.5244C197.106 49.9574 197.204 50.4473 197.259 50.9941V51.623C197.209 52.1654 197.111 52.653 196.965 53.0859C196.824 53.5189 196.63 53.888 196.384 54.1934C196.142 54.4987 195.846 54.7334 195.495 54.8975C195.144 55.057 194.734 55.1367 194.265 55.1367C193.832 55.1367 193.435 55.0433 193.075 54.8564C192.72 54.6696 192.412 54.4076 192.152 54.0703C191.897 53.7331 191.699 53.3366 191.558 52.8809C191.421 52.4206 191.353 51.9215 191.353 51.3838ZM192.624 51.2402V51.3838C192.624 51.7529 192.66 52.0993 192.733 52.4229C192.811 52.7464 192.929 53.0312 193.089 53.2773C193.248 53.5234 193.451 53.7171 193.697 53.8584C193.943 53.9951 194.237 54.0635 194.579 54.0635C194.998 54.0635 195.342 53.9746 195.611 53.7969C195.885 53.6191 196.104 53.3844 196.268 53.0928C196.432 52.8011 196.559 52.4844 196.65 52.1426V50.4951C196.596 50.2445 196.516 50.0029 196.411 49.7705C196.311 49.5335 196.179 49.3239 196.015 49.1416C195.855 48.9548 195.657 48.8066 195.42 48.6973C195.188 48.5879 194.912 48.5332 194.593 48.5332C194.246 48.5332 193.948 48.6061 193.697 48.752C193.451 48.8932 193.248 49.0892 193.089 49.3398C192.929 49.5859 192.811 49.873 192.733 50.2012C192.66 50.5247 192.624 50.8711 192.624 51.2402ZM199.234 51.3838V51.2266C199.234 50.6934 199.312 50.1989 199.467 49.7432C199.622 49.2829 199.845 48.8841 200.137 48.5469C200.428 48.2051 200.782 47.9408 201.196 47.7539C201.611 47.5625 202.076 47.4668 202.591 47.4668C203.11 47.4668 203.577 47.5625 203.992 47.7539C204.411 47.9408 204.767 48.2051 205.059 48.5469C205.355 48.8841 205.58 49.2829 205.735 49.7432C205.89 50.1989 205.968 50.6934 205.968 51.2266V51.3838C205.968 51.917 205.89 52.4115 205.735 52.8672C205.58 53.3229 205.355 53.7217 205.059 54.0635C204.767 54.4007 204.414 54.665 203.999 54.8564C203.589 55.0433 203.124 55.1367 202.604 55.1367C202.085 55.1367 201.618 55.0433 201.203 54.8564C200.788 54.665 200.433 54.4007 200.137 54.0635C199.845 53.7217 199.622 53.3229 199.467 52.8672C199.312 52.4115 199.234 51.917 199.234 51.3838ZM200.499 51.2266V51.3838C200.499 51.7529 200.542 52.1016 200.629 52.4297C200.715 52.7533 200.845 53.0404 201.019 53.291C201.196 53.5417 201.417 53.7399 201.682 53.8857C201.946 54.027 202.254 54.0977 202.604 54.0977C202.951 54.0977 203.254 54.027 203.514 53.8857C203.778 53.7399 203.997 53.5417 204.17 53.291C204.343 53.0404 204.473 52.7533 204.56 52.4297C204.651 52.1016 204.696 51.7529 204.696 51.3838V51.2266C204.696 50.862 204.651 50.5179 204.56 50.1943C204.473 49.8662 204.341 49.5768 204.163 49.3262C203.99 49.071 203.771 48.8704 203.507 48.7246C203.247 48.5788 202.942 48.5059 202.591 48.5059C202.244 48.5059 201.939 48.5788 201.675 48.7246C201.415 48.8704 201.196 49.071 201.019 49.3262C200.845 49.5768 200.715 49.8662 200.629 50.1943C200.542 50.5179 200.499 50.862 200.499 51.2266ZM208.812 49.0732V55H207.54V47.6035H208.743L208.812 49.0732ZM208.552 51.0215L207.964 51.001C207.968 50.4951 208.035 50.028 208.162 49.5996C208.29 49.1667 208.479 48.7907 208.729 48.4717C208.98 48.1527 209.292 47.9066 209.666 47.7334C210.04 47.5557 210.473 47.4668 210.965 47.4668C211.311 47.4668 211.63 47.5169 211.922 47.6172C212.214 47.7129 212.466 47.8656 212.681 48.0752C212.895 48.2848 213.061 48.5537 213.18 48.8818C213.298 49.21 213.357 49.6064 213.357 50.0713V55H212.093V50.1328C212.093 49.7454 212.027 49.4355 211.895 49.2031C211.767 48.9707 211.585 48.8021 211.348 48.6973C211.111 48.5879 210.833 48.5332 210.514 48.5332C210.14 48.5332 209.828 48.5993 209.577 48.7314C209.326 48.8636 209.126 49.0459 208.976 49.2783C208.825 49.5107 208.716 49.7773 208.647 50.0781C208.584 50.3743 208.552 50.6888 208.552 51.0215ZM213.344 50.3242L212.496 50.584C212.501 50.1784 212.567 49.7887 212.694 49.415C212.826 49.0413 213.016 48.7087 213.262 48.417C213.512 48.1253 213.82 47.8952 214.185 47.7266C214.549 47.5534 214.966 47.4668 215.436 47.4668C215.832 47.4668 216.183 47.5192 216.488 47.624C216.798 47.7288 217.058 47.8906 217.268 48.1094C217.482 48.3236 217.644 48.5993 217.753 48.9365C217.862 49.2738 217.917 49.6748 217.917 50.1396V55H216.646V50.126C216.646 49.7113 216.579 49.39 216.447 49.1621C216.32 48.9297 216.137 48.7679 215.9 48.6768C215.668 48.5811 215.39 48.5332 215.066 48.5332C214.788 48.5332 214.542 48.5811 214.328 48.6768C214.114 48.7725 213.934 48.9046 213.788 49.0732C213.642 49.2373 213.531 49.4264 213.453 49.6406C213.38 49.8548 213.344 50.0827 213.344 50.3242ZM224.192 53.7354V49.9277C224.192 49.6361 224.133 49.3831 224.015 49.1689C223.901 48.9502 223.728 48.7816 223.495 48.6631C223.263 48.5446 222.976 48.4854 222.634 48.4854C222.315 48.4854 222.035 48.54 221.793 48.6494C221.556 48.7588 221.369 48.9023 221.232 49.0801C221.1 49.2578 221.034 49.4492 221.034 49.6543H219.77C219.77 49.39 219.838 49.1279 219.975 48.8682C220.111 48.6084 220.307 48.3737 220.562 48.1641C220.822 47.9499 221.132 47.7812 221.492 47.6582C221.857 47.5306 222.262 47.4668 222.709 47.4668C223.247 47.4668 223.721 47.5579 224.131 47.7402C224.546 47.9225 224.869 48.1982 225.102 48.5674C225.339 48.932 225.457 49.39 225.457 49.9414V53.3867C225.457 53.6328 225.478 53.8949 225.519 54.1729C225.564 54.4508 225.63 54.6901 225.717 54.8906V55H224.397C224.334 54.8542 224.284 54.6605 224.247 54.4189C224.211 54.1729 224.192 53.945 224.192 53.7354ZM224.411 50.5156L224.425 51.4043H223.146C222.786 51.4043 222.465 51.4339 222.183 51.4932C221.9 51.5479 221.663 51.6322 221.472 51.7461C221.28 51.86 221.134 52.0036 221.034 52.1768C220.934 52.3454 220.884 52.5436 220.884 52.7715C220.884 53.0039 220.936 53.2158 221.041 53.4072C221.146 53.5986 221.303 53.7513 221.513 53.8652C221.727 53.9746 221.989 54.0293 222.299 54.0293C222.686 54.0293 223.028 53.9473 223.324 53.7832C223.62 53.6191 223.855 53.4186 224.028 53.1816C224.206 52.9447 224.302 52.7145 224.315 52.4912L224.855 53.0996C224.824 53.291 224.737 53.5029 224.596 53.7354C224.454 53.9678 224.265 54.1911 224.028 54.4053C223.796 54.6149 223.518 54.7904 223.194 54.9316C222.875 55.0684 222.515 55.1367 222.114 55.1367C221.613 55.1367 221.173 55.0387 220.795 54.8428C220.421 54.6468 220.13 54.3848 219.92 54.0566C219.715 53.724 219.612 53.3525 219.612 52.9424C219.612 52.5459 219.69 52.1973 219.845 51.8965C220 51.5911 220.223 51.3382 220.515 51.1377C220.806 50.9326 221.157 50.7777 221.567 50.6729C221.978 50.568 222.436 50.5156 222.941 50.5156H224.411Z" fill="#CFCFCF"/>
<path fill-rule="evenodd" clip-rule="evenodd" d="M20.7458 0.189691C25.614 0.189691 29.5654 6.18289 29.5654 13.5706C29.5654 20.9583 25.614 26.9515 20.7458 26.9515C15.8776 26.9515 11.9261 20.9634 11.9261 13.5706C11.9313 6.18289 15.8776 0.189691 20.7458 0.189691ZM31.9581 32.5807C42.2848 32.6012 43.5692 39.3737 52.2749 50.9653C56.6148 59.3989 50.9802 64.7153 41.3215 62.439C36.9402 60.2294 33.8587 59.4501 30.7669 59.5527C25.412 59.7372 24.0603 63.2337 17.8301 62.9876C13.0241 62.8594 10.8593 60.8651 10.4398 57.8249C9.98924 54.5951 11.2477 52.5546 12.7807 49.8836C18.7364 39.4865 24.8941 31.2785 31.9581 32.5807ZM3.71243 20.0355C0.0716704 21.4607 -1.0884 27.095 1.11781 32.6166C3.32401 38.1381 8.0627 41.4603 11.7035 40.035C15.3442 38.6098 16.5043 32.9754 14.2981 27.4539C12.0919 21.9324 7.35319 18.6102 3.71243 20.0355ZM58.2876 20.0355C61.9283 21.4607 63.0884 27.095 60.8822 32.6166C58.676 38.1381 53.9321 41.4603 50.2965 40.035C46.6558 38.6098 45.4957 32.9754 47.7019 27.4539C49.9081 21.9324 54.6468 18.6102 58.2876 20.0355ZM41.0937 0C45.9618 0 49.9133 5.9932 49.9133 13.3809C49.9133 20.7686 45.9618 26.7618 41.0937 26.7618C36.2255 26.7618 32.274 20.7737 32.274 13.3809C32.2792 5.9932 36.2255 0 41.0937 0Z" fill="#F7BF4F"/>
</svg>
