<svg width="437" height="448" viewBox="0 0 437 448" fill="none" xmlns="http://www.w3.org/2000/svg">
<path fill-rule="evenodd" clip-rule="evenodd" d="M146.224 1.34891C180.537 1.34891 208.389 43.9673 208.389 96.5019C208.389 149.037 180.537 191.655 146.224 191.655C111.912 191.655 84.0601 149.073 84.0601 96.5019C84.0966 43.9673 111.912 1.34891 146.224 1.34891ZM225.253 231.685C298.04 231.831 307.092 279.99 368.454 362.42C399.043 422.392 359.328 460.198 291.25 444.011C260.369 428.298 238.65 422.756 216.857 423.486C179.113 424.798 169.586 449.662 125.673 447.912C91.7987 447 76.5405 432.819 73.5838 411.2C70.4081 388.232 79.2782 373.722 90.0831 354.728C132.061 280.793 175.463 222.425 225.253 231.685ZM26.1666 142.474C0.505161 152.609 -7.67147 192.676 7.87873 231.94C23.4289 271.204 56.829 294.828 82.4905 284.693C108.152 274.558 116.329 234.492 100.778 195.228C85.2282 155.963 51.8281 132.339 26.1666 142.474ZM410.833 142.474C436.495 152.609 444.671 192.676 429.121 231.94C413.571 271.204 380.134 294.828 354.51 284.693C328.848 274.558 320.671 234.492 336.222 195.228C351.772 155.963 385.172 132.339 410.833 142.474ZM289.644 0C323.957 0 351.808 42.6183 351.808 95.153C351.808 147.688 323.957 190.306 289.644 190.306C255.331 190.306 227.48 147.724 227.48 95.153C227.516 42.6183 255.331 0 289.644 0Z" fill="white"/>
</svg>
