<svg width="12" height="11" viewBox="0 0 12 11" fill="none" xmlns="http://www.w3.org/2000/svg">
<path d="M2.79976 4.05264H0V11H2.79976V4.05264Z" fill="#0F131B"/>
<path d="M2.79976 1.35088C2.79976 0.604808 2.17301 0 1.39988 0C0.626748 0 0 0.604808 0 1.35088C0 2.09694 0.626748 2.70175 1.39988 2.70175C2.17301 2.70175 2.79976 2.09694 2.79976 1.35088Z" fill="#0F131B"/>
<path d="M8.19984 6.36843C8.46504 6.36843 8.71938 6.47009 8.9069 6.65104C9.09442 6.832 9.19976 7.07743 9.19976 7.33334V11H11.9995V7.48C11.9995 6.80071 12.1075 4.05264 9.07977 4.05264C9.07977 4.05264 7.5719 4.05264 6.99195 5.31089V4.05264H4.40017V11H7.19993V7.33334C7.19993 7.07743 7.30528 6.832 7.4928 6.65104C7.68032 6.47009 7.93465 6.36843 8.19984 6.36843Z" fill="#0F131B"/>
</svg>
