<svg width="12" height="10" viewBox="0 0 12 10" fill="none" xmlns="http://www.w3.org/2000/svg">
<path d="M12 1.51739C11.6042 1.59776 11.195 1.57695 10.8091 1.45684C11.062 1.04777 11.2195 0.585323 11.2696 0.104857C10.8875 0.471386 10.4205 0.733775 9.91201 0.867629C9.6054 0.488402 9.19083 0.21498 8.72523 0.0849296C8.25963 -0.0451208 7.76585 -0.025419 7.3117 0.141314C6.85756 0.308046 6.46534 0.613632 6.18889 1.01611C5.91244 1.41859 5.76533 1.89821 5.76778 2.38911C5.76739 2.67425 5.81713 2.95717 5.91465 3.22452C3.75521 3.01466 1.94509 2.01378 0.940785 0.698107C0.631685 1.31606 0.44298 1.98894 0.385048 2.6797C0.306121 3.76345 0.528075 4.84796 1.02564 5.80975C1.52321 6.77155 2.27641 7.57199 3.19947 8.11994C2.19658 8.58944 1.10406 8.82787 0 8.81815C1.00075 9.47 2.14236 9.86473 3.3265 9.96834C7.09362 10.3154 10.3963 7.76883 10.7019 4.28594C10.7511 3.7177 10.7176 3.14522 10.6027 2.58688C11.1796 2.41233 11.6755 2.03275 12 1.51739Z" fill="#0F131B"/>
</svg>
